# xmcd CD database file
#
# Track frame offsets:
#	150
#	13312
#	33085
#	48427
#	64941
#	80634
#	93338
#	105914
#	119012
#	133647
#
# Disc length: 1961 seconds
#
# Revision: 0
# Processed by: cddbd v1.5.2PL0 Copyright (c) Steve Scherf et al.
# Submitted via: CDex 1.51
#
DISCID=8107a70a
DTITLE=Johnny Cash - American Recordings VI - Ain't No Grave
DYEAR=2010
DGENRE=Country
TTITLE0=Aint No Grave
TTITLE1=Redemption Day
TTITLE2=For The Good Times
TTITLE3=I Corinthians 1555
TTITLE4=Can't Help But Wonder Where Im Bound
TTITLE5=Satisfied Mind
TTITLE6=I Don't Hurt Anymore
TTITLE7=Cool Water
TTITLE8=Last Night I Had The Strangest Dream
TTITLE9=Aloha Oe
EXTD=YEAR: 2010
EXTT0=
EXTT1=
EXTT2=
EXTT3=
EXTT4=
EXTT5=
EXTT6=
EXTT7=
EXTT8=
EXTT9=
PLAYORDER=
